<?xml version="1.0" encoding="utf-8"?>
<!-- Generator: Adobe Illustrator 26.0.1, SVG Export Plug-In . SVG Version: 6.00 Build 0)  -->
<svg version="1.1" id="Layer_1" xmlns="http://www.w3.org/2000/svg" xmlns:xlink="http://www.w3.org/1999/xlink" x="0px" y="0px"
	 width="1080px" height="220px" viewBox="0 0 1080 220" enable-background="new 0 0 1080 220" xml:space="preserve">
<g>
	<path fill="#FFFFFF" d="M150.8,118.1c-8,45-7.3,47.5-68.3,47.5c-61.1,0-59.7-2.4-51.7-47.5l7.8-45h27.5l-7.8,45
		c-4.5,25.1-4.5,25.1,28,25.1c32.4,0,32.5,0,36.9-24.9l8-45.1h27.5L150.8,118.1z"/>
	<path fill="#FFFFFF" d="M295.4,73.1l-15.8,90h-39l-44.4-61.9l-10.9,61.9h-27.5l15.9-90h36.1l46.6,64.9l11.4-64.9H295.4z"/>
	<path fill="#FFFFFF" d="M427.4,93.2H378l-12.3,70h-27.5l12.3-70h-49.4l3.5-20.1H431L427.4,93.2z"/>
	<path fill="#FFFFFF" d="M467.7,73.1l-15.9,90h-27.5l15.9-90H467.7z"/>
	<path fill="#FFFFFF" d="M599.5,93.2h-49.4l-12.3,70h-27.5l12.3-70h-49.4l3.5-20.1h126.4L599.5,93.2z"/>
	<path fill="#FFFFFF" d="M703.9,143.1l-3.6,20.1h-104l15.9-90h27.5l-12.3,70H703.9z"/>
	<path fill="#FFFFFF" d="M740.9,140.6h89l-4,22.4l-116.5,0.1l15.8-90h116.6l-4.1,22.5h-89l-2.2,12.5h86.7l-3.6,20.1h-86.5
		L740.9,140.6z"/>
	<path fill="#FFFFFF" d="M840.4,163.1l15.8-90h62.6c59.9,0,62,2.4,54.5,45C965.9,160.7,963,163,903,163L840.4,163.1z M906.8,140.6
		c35,0,35,0,39-22.4c4-22.6,4-22.6-31-22.6h-35.1l-7.8,45H906.8z"/>
</g>
<g>
	<path fill="#FFFFFF" d="M1021,71.4h-13.3l-3.3,18.8H997l3.3-18.8H987L988,66h34L1021,71.4z"/>
	<path fill="#FFFFFF" d="M1063.6,66l-4.3,24.2h-7.4l2.6-14.9l-11.8,14.9h-6.2l-6.5-14.9l-2.6,14.9h-7.4l4.3-24.2h1.7h7.8l7.2,16.5
		l13-16.5h7.8H1063.6z"/>
</g>
<g>
</g>
<g>
</g>
<g>
</g>
<g>
</g>
<g>
</g>
<g>
</g>
</svg>
