<svg id="Layer_1" data-name="Layer 1" xmlns="http://www.w3.org/2000/svg" width="1056.58" height="59.57" viewBox="0 0 1056.58 59.57">
  <g>
    <path d="M89.44,107.07c-5,28.26-4.6,29.79-42.86,29.79s-37.45-1.53-32.45-29.79l4.93-28.25H36.33l-4.92,28.25c-2.83,15.74-2.83,15.74,17.59,15.74s20.43,0,23.17-15.66l5-28.33H94.45Z" transform="translate(-11.67 -77.29)"/>
    <path d="M180.25,78.82l-9.93,56.51H145.86L118,96.5l-6.86,38.83H93.88l10-56.51h22.68l29.22,40.77L163,78.82Z" transform="translate(-11.67 -77.29)"/>
    <path d="M263.06,91.41h-31l-7.75,43.92H207l7.75-43.92h-31L186,78.82h79.35Z" transform="translate(-11.67 -77.29)"/>
    <path d="M288.32,78.82l-10,56.51H261l10-56.51Z" transform="translate(-11.67 -77.29)"/>
    <path d="M371.06,91.41h-31l-7.75,43.92H315l7.75-43.92h-31L294,78.82h79.34Z" transform="translate(-11.67 -77.29)"/>
    <path d="M436.59,122.73l-2.26,12.6H369l10-56.51h17.27l-7.74,43.91Z" transform="translate(-11.67 -77.29)"/>
    <path d="M459.84,121.2h55.85l-2.5,14-73.13.08L450,78.82H523.2L520.62,93H464.76l-1.37,7.83h54.4l-2.26,12.59H461.21Z" transform="translate(-11.67 -77.29)"/>
    <path d="M522.23,135.33l9.92-56.51h39.31c37.62,0,38.91,1.54,34.23,28.25s-6.46,28.18-44.15,28.18ZM564,121.2c21.95,0,21.95,0,24.46-14C590.92,93,590.92,93,569,93h-22L542,121.2Z" transform="translate(-11.67 -77.29)"/>
  </g>
  <g>
    <path d="M709.88,116.52c-4.12,19.21-9.13,20.34-37.94,20.34-33,0-34.31-1.53-29.3-29.79s6.86-29.78,39.79-29.78c28.82,0,33.42,1.13,30.76,20.34h-7.75c1.93-14.13-1.62-14.13-24.14-14.13-26.63,0-26.63,0-30.83,23.57s-4.12,23.57,22.6,23.57c22.44,0,26,0,29-14.12Z" transform="translate(-11.67 -77.29)"/>
    <path d="M781.47,129.84l-1,5.49h-7.91l1-5.49c2.34-13.4,1.69-13.32-13.8-13.32H725.77l-3.31,18.81h-7.91l10-56.51h41.89c22.61,0,23.74,1.54,20.67,18.81-1.54,9-3.23,14-9.85,15.82C783.32,115.07,783.24,119.83,781.47,129.84Zm-20.59-19.62c15.58,0,16.23-.16,18.41-12.59s1.61-12.51-14-12.51H731.26l-4.44,25.1Z" transform="translate(-11.67 -77.29)"/>
    <path d="M806.32,85.12,803,103.93h54.81l-1.13,6.29H801.88L798.58,129h56.5l-1.05,6.3H789.62l10-56.51H864l-1.13,6.3Z" transform="translate(-11.67 -77.29)"/>
    <path d="M917,122.73h-42.7l-9.21,12.6h-8.47l41.57-56.51h10.41l21.63,56.51h-8.47Zm-2.43-6.13-12.18-32L878.89,116.6Z" transform="translate(-11.67 -77.29)"/>
    <path d="M997.7,85.12H967l-8.8,50.21h-7.91l8.88-50.21H928.53l1.13-6.3h69.17Z" transform="translate(-11.67 -77.29)"/>
    <path d="M1010.61,85.12l-3.31,18.81h54.81l-1.13,6.29h-54.81L1002.86,129h56.51l-1,6.3H993.9l10-56.51h64.34l-1.13,6.3Z" transform="translate(-11.67 -77.29)"/>
  </g>
</svg>
